<?xml version="1.0" encoding="UTF-8" standalone="no"?>
<svg
   xmlns:dc="http://purl.org/dc/elements/1.1/"
   xmlns:cc="http://creativecommons.org/ns#"
   xmlns:rdf="http://www.w3.org/1999/02/22-rdf-syntax-ns#"
   xmlns:svg="http://www.w3.org/2000/svg"
   xmlns="http://www.w3.org/2000/svg"
   xmlns:sodipodi="http://sodipodi.sourceforge.net/DTD/sodipodi-0.dtd"
   xmlns:inkscape="http://www.inkscape.org/namespaces/inkscape"
   data-v-1084b650=""
   viewBox="0 0 159.87119 159.87119"
   version="1.1"
   id="svg13"
   sodipodi:docname="groupomania-logo_mobile.svg"
   inkscape:version="0.92.4 (5da689c313, 2019-01-14)"
   width="159.87119"
   height="159.87119">
  <metadata
     id="metadata19">
    <rdf:RDF>
      <cc:Work
         rdf:about="">
        <dc:format>image/svg+xml</dc:format>
        <dc:type
           rdf:resource="http://purl.org/dc/dcmitype/StillImage" />
        <dc:title></dc:title>
      </cc:Work>
    </rdf:RDF>
  </metadata>
  <defs
     id="defs17" />
  <sodipodi:namedview
     pagecolor="#ffffff"
     bordercolor="#666666"
     borderopacity="1"
     objecttolerance="10"
     gridtolerance="10"
     guidetolerance="10"
     inkscape:pageopacity="0"
     inkscape:pageshadow="2"
     inkscape:window-width="1680"
     inkscape:window-height="987"
     id="namedview15"
     showgrid="false"
     inkscape:zoom="0.78666667"
     inkscape:cx="-339.33182"
     inkscape:cy="36.745928"
     inkscape:window-x="-8"
     inkscape:window-y="18"
     inkscape:window-maximized="1"
     inkscape:current-layer="svg13" />
  <!---->
  <!---->
  <!---->
  <!---->
  <path
     style="fill:#ffd7d7;stroke:none;stroke-width:1.9123348"
     inkscape:connector-curvature="0"
     d="m 79.935591,159.87119 c 21.418149,0 41.497659,-8.22304 56.605109,-23.33049 15.10744,-15.10744 23.33048,-35.18696 23.33048,-56.60511 0,-21.41815 -8.22304,-41.49766 -23.33048,-56.60511 C 121.43325,8.22304 101.35374,0 79.935591,0 58.517441,0 38.437931,8.22304 23.330484,23.33048 8.223039,38.43793 0,58.51744 0,79.93559 c 0,21.41815 8.223039,41.49767 23.330484,56.60511 15.107447,15.10745 35.186957,23.33049 56.605107,23.33049 z m 4.5896,-13.57758 c -1.52987,0.19123 -3.05974,0.19123 -4.5896,0.19123 -2.10357,0 -4.20714,-0.19123 -6.31071,-0.38246 -6.8844,-10.70908 -12.04771,-22.18309 -15.10744,-34.2308 h 33.84832 c 1.1474,2.86851 3.25097,5.54577 5.73701,7.26688 -3.25097,9.56167 -7.84058,18.54964 -13.57758,27.15515 z m 18.167179,-3.82467 c 3.63344,-6.69317 6.50194,-13.38634 8.79674,-20.46198 5.54577,-1.1474 9.94414,-4.97207 12.04771,-10.13538 h 14.72498 c -7.64934,13.96005 -20.46198,24.86036 -35.56943,30.59736 z M 146.2936,79.93559 c 0,6.31071 -0.95616,12.43018 -2.48603,18.35842 h -20.65322 c -1.1474,-2.48604 -3.05973,-4.78084 -5.35453,-6.50194 0.38246,-4.20714 0.5737,-8.41427 0.5737,-12.62141 0,-5.92824 -0.38247,-11.85648 -1.14741,-17.59348 h 26.39022 c 1.91234,5.737 2.67727,12.04771 2.67727,18.35841 z M 138.2618,47.9996 h -23.33049 c -2.48603,-10.51784 -6.11947,-20.46198 -11.09154,-30.02365 14.53375,5.54577 26.77269,16.44608 34.42203,30.02365 z m -33.27463,31.17106 c 0,3.25097 -0.19123,6.50194 -0.38246,9.75291 -5.354539,1.1474 -9.752909,4.5896 -11.856479,9.37044 h -36.90806 c -0.76493,-5.73701 -1.33863,-11.66525 -1.33863,-17.40225 0,-3.63344 0.19123,-7.26687 0.5737,-10.90031 4.97207,-0.95616 8.98797,-4.20713 11.474,-8.41427 h 37.290529 c 0.76494,5.737 1.1474,11.66524 1.1474,17.59348 z M 74.963521,13.76881 c 1.7211,-0.19123 3.4422,-0.19123 4.97207,-0.19123 1.91233,0 3.82467,0 5.737,0.19123 6.88441,10.70908 12.04771,22.18308 15.107449,34.23079 H 67.505411 c -1.1474,-3.25097 -3.25097,-6.11947 -5.92824,-8.22304 3.44221,-9.1792 7.84058,-17.78471 13.38635,-26.00775 z m -18.16718,3.82467 c -3.25097,6.11947 -6.11947,12.62141 -8.41427,19.12335 -5.92824,1.1474 -10.70908,5.54577 -12.62141,11.09154 H 21.800616 C 29.258721,34.23079 41.688901,23.33048 56.796341,17.59348 Z M 13.577576,79.93559 c 0,-6.3107 0.956168,-12.62141 2.677269,-18.35841 h 20.844446 c 1.1474,2.10357 2.8685,4.0159 4.78084,5.54577 -0.38247,4.5896 -0.76493,9.17921 -0.76493,13.76881 0,5.92824 0.38246,11.66524 1.1474,17.40225 H 16.254845 C 14.34251,92.36577 13.577576,86.2463 13.577576,79.93559 Z m 30.979825,31.74476 c 2.48603,10.32661 6.11947,20.46198 11.09154,30.02366 C 41.115201,135.967 29.067488,125.25793 21.609382,111.68035 Z"
     id="path4" />
</svg>
